<svg width="25" height="25" viewBox="0 0 30 30" fill="none" xmlns="http://www.w3.org/2000/svg">
<path fill-rule="evenodd" clip-rule="evenodd" d="M11.7655 0.340093C9.16951 0.902783 6.45614 2.41958 4.44505 4.43234C-1.43912 10.3217 -1.48757 19.6919 4.33662 25.4682C7.21274 28.3207 10.3629 29.7623 14.1889 29.9766C21.0531 30.3609 27.3486 25.9802 29.4458 19.3597C30.1847 17.0274 30.1847 12.9991 29.4458 10.6668C27.0765 3.18737 19.3778 -1.30945 11.7655 0.340093ZM24.099 8.77668L24.6764 9.35323V15.0133V20.6733L24.099 21.2498L23.5219 21.8266H15.0337H6.54551L5.96836 21.2498L5.39097 20.6733V15.0133V9.35323L5.96836 8.77668L6.54551 8.1999H15.0337H23.5219L24.099 8.77668ZM8.81296 10.043C8.93573 10.1523 10.3857 11.3195 12.035 12.6368L15.0337 15.0321L18.0323 12.6368C19.6817 11.3195 21.1314 10.1523 21.2544 10.043C21.3772 9.93378 18.578 9.8445 15.0337 9.8445C11.4894 9.8445 8.69019 9.93378 8.81296 10.043ZM6.85596 15.2752L6.9197 20.0645L14.981 20.1263C21.3998 20.1757 23.0663 20.1263 23.1592 19.8846C23.2234 19.7175 23.2469 17.5483 23.2116 15.064L23.1477 10.5472L19.2861 13.6024C17.1624 15.283 15.2423 16.6579 15.0193 16.6579C14.7966 16.6579 13.2533 15.5698 11.5901 14.2401C9.92681 12.9103 8.1669 11.5215 7.67912 11.1541L6.79222 10.4859L6.85596 15.2752Z" fill="#FFDE49"/>
</svg>
