<svg width="25" height="25" viewBox="0 0 30 30" fill="none" xmlns="http://www.w3.org/2000/svg">
<path fill-rule="evenodd" clip-rule="evenodd" d="M11.711 0.333214C6.28459 1.49132 1.4577 6.3596 0.320247 11.8211C-1.62239 21.151 5.52237 30 14.9984 30C24.4636 30 31.6408 21.117 29.6735 11.8361C27.9722 3.81035 19.8351 -1.40078 11.711 0.333214ZM11.555 8.86496C12.4156 9.75577 13.1199 10.5469 13.1199 10.6224C13.1199 10.6982 12.5915 11.3431 11.9458 12.0558C11.3 12.7685 10.7717 13.4993 10.7717 13.68C10.7717 14.6851 15.4065 19.2133 16.4355 19.2133C16.6893 19.2133 17.4055 18.7381 18.0268 18.1573C18.6481 17.5765 19.3129 17.1012 19.5045 17.1012C19.6959 17.1012 20.5626 17.8362 21.4305 18.7348C23.2555 20.6239 23.2527 20.8666 21.3931 22.0451C20.5835 22.5583 20.0225 22.7334 19.1878 22.7334C17.1023 22.7334 14.0781 21.15 11.6358 18.7796C7.96845 15.2201 6.29445 11.2443 7.59862 9.19115C8.26925 8.13489 9.18598 7.24501 9.60301 7.24501C9.81599 7.24501 10.6944 7.9739 11.555 8.86496Z" fill="#FFDE49"/>
</svg>
