<svg id="Слой_1" data-name="Слой 1" xmlns="http://www.w3.org/2000/svg" viewBox="0 0 2000 984.39"><defs><style>.cls-1{fill:#fff;}.cls-2{fill:#ff8900;}</style></defs><title>4</title><path class="cls-1" d="M1115.12,624.71V386.81L956.33,624.71H870.21V256h83.43V493.92L1112.43,256h86.12v368.7Z"/><path class="cls-1" d="M1470.36,326a105.82,105.82,0,0,0-43.6,8.88,109.64,109.64,0,0,0-57.86,60.29,117.64,117.64,0,0,0-8.34,44.4,121.18,121.18,0,0,0,8.34,45.22,108.22,108.22,0,0,0,23.41,36.33,110.64,110.64,0,0,0,35.8,24.22,112.85,112.85,0,0,0,44.94,8.88q33.92,0,59.48-16.15a121.84,121.84,0,0,0,41.18-43.59l65.12,45.21q-26.91,43.61-67.55,68.09t-97.15,24.49q-42.53,0-78.86-14.8a192.79,192.79,0,0,1-63-40.91,188.57,188.57,0,0,1-41.72-61.36q-15.07-35.25-15.07-75.63t15.07-75.08a191.47,191.47,0,0,1,41.18-60.56q26.1-25.83,62.17-40.63t78-14.81q54.9,0,96.88,22.61t68.36,69.44L1571,386.27a137.52,137.52,0,0,0-40.63-43.6Q1505.87,326,1470.36,326Z"/><path class="cls-1" d="M1806.77,624.71V332.44H1697V256h303v76.43H1890.2V624.71Z"/><path class="cls-2" d="M880.62,735.18H870.21V670.73h9v40.79l3.68-14.18,8.29-26.61h11.14v64.45h-9.12V689.79l-4.14,15.84Z"/><path class="cls-2" d="M919.66,735.18H909.53V670.73h10.13v27.62h11.5V670.73h10.31v64.45H931.16V707.56h-11.5Z"/><path class="cls-2" d="M978,696.79l12-26.06h10.13l-12.43,26.15,12.43,38.3h-10.4l-9.21-28.54L978,711.52v23.66H968V711.52l-2.48-5-9.21,28.63H945.9l12.52-38L945.9,670.73H956l12,26.06V670.73h10Z"/><path class="cls-2" d="M1014.58,697.89h13.9v9.21h-13.9V726h17.49v9.21h-27.62V670.73h27.62v9.21h-17.49Z"/><path class="cls-2" d="M1048.46,735.18h-10.13V670.73h10.13v27.62H1060V670.73h10.31v64.45H1060V707.56h-11.51Z"/><path class="cls-2" d="M1087.77,697.89h13.91v9.21h-13.91V726h17.5v9.21h-27.62V670.73h27.62v9.21h-17.5Z"/><path class="cls-2" d="M1141.54,686.66V695c0,10.31-5,15.92-15.1,15.92h-4.78v24.22h-10.13V670.73h14.91C1136.57,670.73,1141.54,676.35,1141.54,686.66Zm-19.88-6.72v21.82h4.78c3.23,0,5-1.48,5-6.08V686c0-4.6-1.74-6.07-5-6.07Z"/><path class="cls-2" d="M1156.37,735.18h-10.13V670.73h10.13v27.62h11.5V670.73h10.32v64.45h-10.32V707.56h-11.5Z"/><path class="cls-2" d="M1185.55,735.18V670.73h10.13V695h4.79c10.13,0,15.1,5.61,15.1,15.92v8.38c0,10.31-5,15.93-15.1,15.93Zm14.92-9.21c3.22,0,5-1.47,5-6.07v-9.67c0-4.6-1.75-6.08-5-6.08h-4.79V726Zm20.9,9.21V670.73h10.12v64.45Z"/><path class="cls-2" d="M1249,697.89h13.9v9.21H1249V726h17.49v9.21h-27.62V670.73h27.62v9.21H1249Z"/><path class="cls-2" d="M1316.38,711.15v8.56c0,10.31-5.15,16.2-15.1,16.2s-15.09-5.89-15.09-16.2V686.2c0-10.31,5.15-16.2,15.09-16.2s15.1,5.89,15.1,16.2v6.26h-9.57v-6.91c0-4.6-2-6.35-5.25-6.35s-5.25,1.75-5.25,6.35v34.81c0,4.6,2,6.26,5.25,6.26s5.25-1.66,5.25-6.26v-9.21Z"/><path class="cls-2" d="M1333,735.18h-10.41V670.73h9v40.79l3.68-14.18,8.28-26.61h11.14v64.45h-9.11V689.79l-4.14,15.84Z"/><path class="cls-2" d="M1391.24,711.15v8.56c0,10.31-5.16,16.2-15.1,16.2S1361,730,1361,719.71V686.2c0-10.31,5.15-16.2,15.1-16.2s15.1,5.89,15.1,16.2v6.26h-9.58v-6.91c0-4.6-2-6.35-5.25-6.35s-5.24,1.75-5.24,6.35v34.81c0,4.6,2,6.26,5.24,6.26s5.25-1.66,5.25-6.26v-9.21Z"/><path class="cls-2" d="M1394.46,670.73h31.3v9.21h-10.59v55.24h-10.12V679.94h-10.59Z"/><path class="cls-2" d="M1440.31,697.89h13.9v9.21h-13.9V726h17.49v9.21h-27.62V670.73h27.62v9.21h-17.49Z"/><path class="cls-2" d="M1485.51,716.49l6.91-45.76h14.09v64.45h-9.58V689l-7,46.22h-9.57l-7.55-45.57v45.57H1464V670.73h14.09Z"/><path class="cls-2" d="M1513.87,735.18V670.73H1524V695h4.79c10.12,0,15.1,5.61,15.1,15.92v8.38c0,10.31-5,15.93-15.1,15.93Zm14.92-9.21c3.22,0,5-1.47,5-6.07v-9.67c0-4.6-1.75-6.08-5-6.08H1524V726Zm20.9,9.21V670.73h10.12v64.45Z"/><path class="cls-2" d="M1591.86,735.18h-10.41V670.73h9v40.79l3.69-14.18,8.28-26.61h11.14v64.45h-9.11V689.79l-4.14,15.84Z"/><path class="cls-2" d="M1632.09,670.73h31.3v9.21h-10.58v55.24h-10.13V679.94h-10.59Z"/><path class="cls-2" d="M1677.94,697.89h13.9v9.21h-13.9V726h17.49v9.21h-27.62V670.73h27.62v9.21h-17.49Z"/><path class="cls-2" d="M1735.48,670.73,1724.9,702l11.32,33.15h-10.68l-8.29-25.5-8.37,25.5h-9.49L1710.72,702l-10.59-31.3h10.5l7.64,23.76,7.82-23.76Z"/><path class="cls-2" d="M1751.41,735.18h-10.13V670.73h10.13v27.62h11.51V670.73h10.31v64.45h-10.31V707.56h-11.51Z"/><path class="cls-2" d="M1779.77,686.2c0-10.31,5.43-16.2,15.37-16.2s15.38,5.89,15.38,16.2v33.51c0,10.31-5.43,16.2-15.38,16.2s-15.37-5.89-15.37-16.2Zm10.13,34.16c0,4.6,2,6.35,5.24,6.35s5.25-1.75,5.25-6.35V685.55c0-4.6-2-6.35-5.25-6.35s-5.24,1.75-5.24,6.35Z"/><path class="cls-2" d="M1814.2,726.06c4.61,0,6.08-.64,6.26-6.62l1.66-48.71h28.63v64.45h-10.31V679.94h-8.84l-1.1,38.94c-.37,11.79-4.6,16.39-14.73,16.39h-1.57Z"/><path class="cls-2" d="M1857.66,686.2c0-10.31,5.43-16.2,15.38-16.2s15.37,5.89,15.37,16.2v33.51c0,10.31-5.43,16.2-15.37,16.2s-15.38-5.89-15.38-16.2Zm10.13,34.16c0,4.6,2,6.35,5.25,6.35s5.24-1.75,5.24-6.35V685.55c0-4.6-2-6.35-5.24-6.35s-5.25,1.75-5.25,6.35Z"/><path class="cls-2" d="M1895,735.18V670.73h26.7v9.21h-16.57v55.24Z"/><path class="cls-2" d="M1939,735.18h-10.4V670.73h9v40.79l3.68-14.18,8.29-26.61h11.14v64.45h-9.12V689.79l-4.14,15.84Z"/><path class="cls-2" d="M1978.27,735.18h-10.4V670.73h9v40.79l3.68-14.18,8.29-26.61H2000v64.45h-9.11V689.79l-4.15,15.84Z"/><path class="cls-2" d="M595.93,664.44c0,.14-.07.29-.12.46s-.06.26-.1.4a2.88,2.88,0,0,1-.09.4c-.18.77-.39,1.59-.61,2.42-.07.31-.16.64-.25,1s-.23.85-.34,1.29c0,0,0,0,0,0-.15.58-.31,1.16-.46,1.71l-38.68-10.7c0-.09,0-.18.06-.26a3.92,3.92,0,0,0,.13-.49c.07-.23.13-.47.19-.69.21-.76.42-1.57.63-2.37,0-.13.06-.27.1-.4s.08-.34.12-.52l.09-.33a3.3,3.3,0,0,1,.13-.52c0-.19.09-.38.14-.58s0-.13,0-.19Z"/><path class="cls-2" d="M254.42,227l-40.14,16.63L0,332.41V557l40.14,19.92,93.15,46.25a227.63,227.63,0,0,0,12.07,62.17A231.79,231.79,0,0,0,250.94,811.92c2.26,1.27,4.54,2.5,6.84,3.71,1.77.92,3.56,1.82,5.35,2.69,4,2,8.14,3.85,12.28,5.59h0l2.07.86a236.91,236.91,0,0,0,25.76,8.88V206.78ZM263,772.39c-1.37-.84-2.74-1.72-4.09-2.61s-2.78-1.86-4.15-2.83-2.53-1.78-3.78-2.7l-.7-.51c-1.2-.89-2.4-1.81-3.59-2.73a190.54,190.54,0,0,1-63.35-88.71,187.2,187.2,0,0,1-10.2-61.65l.05-12.49-133-66V359.23l174.14-72.16,48.85-20.23V772.5A1.1,1.1,0,0,1,263,772.39Z"/><path class="cls-2" d="M103.53,699.18l-34,21.36-.66-1A47.39,47.39,0,0,0,37.2,699.77l-.24,0h0L42.73,660h.14l2.22.35c1.49.23,3,.53,4.44.86,2.43.53,4.82,1.17,7.17,1.9,1.46.46,2.9,1,4.33,1.47s2.9,1.13,4.32,1.74c.72.32,1.43.64,2.13,1q2.1,1,4.15,2.07a84.57,84.57,0,0,1,9.85,6.15c.94.68,1.85,1.37,2.75,2.08s1.79,1.44,2.65,2.19c1.75,1.5,3.45,3.07,5.08,4.74.54.55,1.09,1.1,1.61,1.66A83.6,83.6,0,0,1,103.53,699.18Z"/><path class="cls-2" d="M517.56,301.53l-40.14,16.64-49.64,20.56V834.79a240.33,240.33,0,0,0,27.47-9q6.42-2.54,12.67-5.46a235.93,235.93,0,0,0,41.58-24.82,231.21,231.21,0,0,0,74.52-95c.48-1.1.94-2.2,1.37-3.32.08-.18.15-.37.22-.56.42-1,.81-2,1.19-3a0,0,0,0,1,0,0h0a0,0,0,0,1,0,0c0-.11.08-.21.12-.31l.39-1c.1-.28.21-.55.3-.83.26-.69.52-1.37.75-2,.05-.11.08-.23.12-.33.33-.88.64-1.78,1-2.69l.46-1.32q1-3,2-6l.31-1c.22-.74.45-1.47.65-2.2.32-1,.6-2,.9-3l.16-.6c.15-.55.31-1.13.46-1.71,0,0,0,0,0,0s0-.19.05-.27c.09-.34.2-.68.29-1s.18-.66.25-1c.22-.83.43-1.65.61-2.42a2.88,2.88,0,0,0,.09-.4s0,0,0-.08l.09-.32c.05-.17.09-.32.12-.46l0-.14c.61-2.56,1.13-4.9,1.61-7.19l.18-.94c.07-.37.16-.73.22-1.1l0-.19c.14-.75.29-1.49.42-2.23a3.23,3.23,0,0,1,.06-.33l.16-.88c0-.1,0-.21.06-.31l.14-.8c.11-.72.23-1.43.35-2.16l.15-.83c.21-1.32.42-2.63.58-3.9.24-1.59.45-3.18.65-4.86.17-1.45.33-2.9.48-4.37q.15-1.47.27-2.94c.06-.57.12-1.13.15-1.7l89.43-44.39,40.14-19.92V213.08Zm44.86,302.62-.44,13c0,.8-.06,1.59-.11,2.41l-.09,2v.12c0,.83-.09,1.66-.15,2.51l0,.36c0,.33-.05.65-.08,1l0,.43c0,.45-.07.91-.12,1.35l0,.39c-.06.67-.12,1.34-.19,2l0,.4c-.11,1.25-.25,2.47-.38,3.63-.17,1.32-.34,2.64-.54,4-.1.77-.22,1.56-.35,2.36l-.14.88c-.13.76-.25,1.53-.38,2.3l-.39,2.15v0c-.09.53-.21,1.07-.31,1.62l-.42,2.06c-.36,1.76-.76,3.57-1.2,5.46l-.11.4c0,.06,0,.13,0,.19s-.11.39-.14.58a3.3,3.3,0,0,0-.13.52l-.09.33c0,.18-.09.34-.12.52s-.07.27-.1.4c-.21.8-.42,1.61-.63,2.37-.06.22-.12.46-.19.69a3.92,3.92,0,0,1-.13.49c0,.08,0,.17-.06.26s-.12.35-.17.53c-.22.79-.44,1.58-.68,2.35l-.07.28c-.17.55-.33,1.12-.51,1.68l-.21.72q-.75,2.31-1.53,4.67c-.07.17-.13.35-.18.5s-.09.27-.12.36c-.32,1-.68,2-1,2.88l0,0-.07.19c-.28.84-.6,1.67-.92,2.5l-.29.76c-.34.89-.69,1.77-1.05,2.66l-.08.17c-.38,1-.8,2-1.24,3.06a191.2,191.2,0,0,1-61.63,78.54c-.69.52-1.41,1.05-2.12,1.56-.43.32-.86.64-1.31.93-.58.44-1.17.85-1.77,1.25-3.74,2.63-7.6,5.12-11.52,7.45-.27.18-.55.34-.83.51V365.55L517.56,345l173.35-71.82V540.38Z"/><path class="cls-2" d="M595.93,664.44c0,.14-.07.29-.12.46s-.06.26-.1.4a2.88,2.88,0,0,1-.09.4c-.18.77-.39,1.59-.61,2.42-.07.31-.16.64-.25,1s-.23.85-.34,1.29c0,0,0,0,0,0-.15.58-.31,1.16-.46,1.71l-38.68-10.7c0-.09,0-.18.06-.26a3.92,3.92,0,0,0,.13-.49c.07-.23.13-.47.19-.69.21-.76.42-1.57.63-2.37,0-.13.06-.27.1-.4s.08-.34.12-.52l.09-.33a3.3,3.3,0,0,1,.13-.52c0-.19.09-.38.14-.58s0-.13,0-.19Z"/><path class="cls-2" d="M555.26,661.42c-.06.18-.12.35-.17.53-.22.79-.44,1.58-.68,2.35l-.07.28c-.17.55-.33,1.12-.51,1.68l-.21.72q-.75,2.31-1.53,4.67c-.07.17-.13.35-.18.5s-.09.27-.12.36c-.32,1-.68,2-1,2.88l0,0-.07.19c-.28.84-.6,1.67-.92,2.5l-.29.76c-.34.89-.69,1.77-1.05,2.66l-.08.17c-.38,1-.8,2-1.24,3.06a191.2,191.2,0,0,1-61.63,78.54c-.69.52-1.41,1.05-2.12,1.56-.43.32-.86.64-1.31.93-.58.44-1.17.85-1.77,1.25-3.74,2.63-7.6,5.12-11.52,7.45-.27.18-.55.34-.83.51v45.29a235.93,235.93,0,0,0,41.58-24.82,231.21,231.21,0,0,0,74.52-95c.48-1.1.94-2.2,1.37-3.32.08-.18.15-.37.22-.56.42-1,.81-2,1.19-3a0,0,0,0,1,0,0h0a0,0,0,0,1,0,0c0-.11.08-.21.12-.31l.37-1,.32-.83c.26-.69.52-1.37.75-2,.05-.11.08-.23.12-.33.33-.88.64-1.78,1-2.69l.46-1.32q1-3,2-6l.31-1c.22-.74.45-1.47.65-2.2.32-1,.6-2,.9-3l.16-.6ZM422.78,794.5a2.67,2.67,0,0,1-.53.16c-1.31.39-2.62.76-3.94,1.1l-.31.08q-5,1.36-10.08,2.41c-1.13.24-2.26.47-3.39.68l-.24.05c-1.47.28-3,.55-4.45.78s-3.06.51-4.59.72-3.06.43-4.59.61-3,.34-4.57.49c-1.3.12-2.61.24-3.92.32-.49.05-1,.08-1.5.11q-1.83.13-3.66.21h-.42c-1.47.09-2.94.14-4.41.16s-3.08.06-4.61.06c-1.81,0-3.63,0-5.44-.08-1.34,0-2.66-.08-4-.15a2.17,2.17,0,0,1-.36,0c-1.08,0-2.17-.1-3.25-.19-.89,0-1.77-.12-2.66-.19-.49,0-1-.08-1.46-.14-.85-.06-1.68-.13-2.53-.22l-2.05-.22c-.88-.09-1.75-.2-2.62-.32-2.79-.34-5.59-.76-8.37-1.22l-2.14-.38c-.77-.14-1.54-.28-2.32-.45-.53-.09-1.07-.19-1.6-.31-.95-.18-1.92-.39-2.89-.61-.59-.12-1.18-.25-1.78-.4-1-.21-2-.43-2.91-.69a11.46,11.46,0,0,1-1.19-.28c-1.12-.27-2.22-.56-3.32-.86-3.18-.85-6.33-1.78-9.48-2.8-1.12-.35-2.23-.72-3.35-1.11l-.58-.19v42a235.57,235.57,0,0,0,124.51,1.13V793c-.22.08-.46.15-.69.21C425.67,793.65,424.23,794.1,422.78,794.5ZM690.91,540.38,562.42,604.15l-.44,13c0,.8-.06,1.59-.11,2.41l-.09,2v.12c0,.83-.09,1.66-.15,2.51l0,.36c0,.33-.05.65-.08,1l0,.43c0,.45-.07.91-.12,1.35l0,.39c-.06.67-.12,1.34-.19,2l0,.4c-.11,1.25-.25,2.47-.38,3.63-.17,1.32-.34,2.64-.54,4-.1.77-.22,1.56-.35,2.36l-.14.88c-.13.76-.25,1.53-.38,2.3l-.39,2.15v0c-.09.53-.21,1.07-.31,1.62l-.42,2.06c-.36,1.76-.76,3.57-1.2,5.46l-.11.4c0,.06,0,.13,0,.19s-.11.39-.14.58a3.3,3.3,0,0,0-.13.52c-.06.29-.13.57-.21.85,0,.13-.07.27-.1.4-.21.8-.42,1.61-.63,2.37-.06.22-.12.46-.19.69a3.92,3.92,0,0,1-.13.49c-.08.27-.15.53-.23.79-.22.79-.44,1.58-.68,2.35l-.07.28c-.17.55-.33,1.12-.51,1.68l-.21.72q-.75,2.31-1.53,4.67c-.07.17-.13.35-.18.5s-.09.27-.12.36c-.32,1-.68,2-1,2.88l0,0-.07.19c-.28.84-.6,1.67-.92,2.5l-.29.76c-.34.89-.69,1.77-1.05,2.66l-.08.17c-.38,1-.8,2-1.24,3.06a191.2,191.2,0,0,1-61.63,78.54c-.69.52-1.41,1.05-2.12,1.56-.43.32-.86.64-1.31.93-.58.44-1.17.85-1.77,1.25-3.74,2.63-7.6,5.12-11.52,7.45-.28.18-.55.34-.83.49v0a198,198,0,0,1-27.48,13.44c-4.19,1.66-8.41,3.18-12.66,4.53l-.69.22c-1.44.46-2.86.89-4.31,1.31a2.67,2.67,0,0,1-.53.16c-1.31.39-2.62.76-3.94,1.1l-.31.08q-5,1.33-10.08,2.41c-1.13.24-2.26.47-3.39.68l-.24.05c-1.47.28-3,.55-4.45.78s-3,.49-4.59.72-3.06.41-4.59.61-3,.34-4.57.49c-1.3.12-2.61.24-3.92.32-.49.05-1,.08-1.5.11q-1.83.13-3.66.21h-.42c-1.47.09-2.94.14-4.41.16s-3.08.06-4.61.06c-1.81,0-3.63,0-5.44-.08-1.34,0-2.66-.08-4-.15a2.17,2.17,0,0,1-.36,0c-1.08,0-2.17-.1-3.25-.19-.89,0-1.77-.12-2.66-.19-.49,0-1-.08-1.46-.14-.85-.06-1.68-.13-2.53-.22l-2.05-.22c-.88-.09-1.75-.2-2.62-.32-2.79-.34-5.59-.76-8.37-1.22l-2.14-.38c-.77-.14-1.54-.28-2.32-.45-.53-.09-1.07-.19-1.6-.31-.95-.18-1.92-.39-2.89-.61-.59-.12-1.18-.25-1.78-.4-1-.21-2-.43-2.91-.69a11.46,11.46,0,0,1-1.19-.28c-1.12-.27-2.22-.56-3.32-.86-3.18-.85-6.33-1.78-9.48-2.8-1.12-.35-2.23-.72-3.35-1.11l-.58-.19q-5.26-1.82-10.46-3.94l-1.82-.76a197.8,197.8,0,0,1-27.86-14.42,1.1,1.1,0,0,1-.14-.11c-1.37-.84-2.74-1.72-4.09-2.61s-2.78-1.86-4.15-2.83-2.53-1.77-3.78-2.7l-.7-.51c-1.2-.89-2.4-1.81-3.59-2.73a190.54,190.54,0,0,1-63.35-88.71,187.2,187.2,0,0,1-10.2-61.65l.05-12.49-133-66L0,512.19V702.58l22.55-2.81h.11l.92-.12a45.14,45.14,0,0,1,13.33.09H37l.24,0a45.18,45.18,0,0,1,31.68,19.75c.2.28.38.56.56.84l.1.18c.23.36.42.7.64,1.06s.42.7.63,1.11a43.25,43.25,0,0,1,2,4.12,42.86,42.86,0,0,1-1,35.75A44.37,44.37,0,0,1,54,781.73L35.84,792.21l11.24,17.66A371.4,371.4,0,0,0,155.9,920.66l18.1,12,10.54-19a42.92,42.92,0,0,1,7.93-10.27,46.39,46.39,0,0,1,38.91-12.34A47.45,47.45,0,0,1,242,894a44.86,44.86,0,0,1,23.2,21.45,43.23,43.23,0,0,1,2.35,33.26l-7,21,21.57,4.95a380.21,380.21,0,0,0,159.15,2.54l23.14-4.55-8.19-22.12a43.28,43.28,0,0,1,7.18-42.75,45.32,45.32,0,0,1,18.07-13.28,46.73,46.73,0,0,1,16.42-3.39,45.61,45.61,0,0,1,40,21.72,43.37,43.37,0,0,1,2.62,5L549.85,939l19.63-12.16a371.48,371.48,0,0,0,115.1-111.45L698,795.1l-22.43-9.34a45.08,45.08,0,0,1-18.87-14.66A43.22,43.22,0,0,1,651.38,728c8.8-20.79,32.13-31.87,54.26-25.76l25.41,7V520.46Zm0,120.06c-32.79.95-63.27,20.62-76.48,51.88A84.07,84.07,0,0,0,639,810.24a330,330,0,0,1-74.12,71.51,86.2,86.2,0,0,0-98.49-24.47,85.35,85.35,0,0,0-34.13,25.14,84.25,84.25,0,0,0-18.69,58.69A339,339,0,0,1,309.9,939.3a83.44,83.44,0,0,0-8.72-41.73,85,85,0,0,0-43.95-40.72,86.38,86.38,0,0,0-92.59,17.62c-.65.64-1.3,1.28-1.93,1.93a330.75,330.75,0,0,1-71.55-72.95,84.2,84.2,0,0,0,16.74-23.34,83.54,83.54,0,0,0,1.92-68.8c-1.12-2.63-2.37-5.23-3.69-7.69-.4-.74-.83-1.48-1.26-2.24l-.14-.22c-.37-.61-.73-1.22-1.1-1.82l-.1-.16a83.6,83.6,0,0,0-10-13c-.52-.56-1.07-1.11-1.61-1.66-1.63-1.67-3.33-3.24-5.08-4.74-.86-.75-1.76-1.47-2.65-2.19s-1.81-1.4-2.75-2.08a84.57,84.57,0,0,0-9.85-6.15c-1.37-.73-2.75-1.43-4.15-2.07-.7-.33-1.41-.65-2.13-1-1.42-.61-2.87-1.19-4.32-1.74s-2.87-1-4.33-1.47c-2.35-.73-4.74-1.37-7.17-1.9-1.47-.33-3-.63-4.44-.86L42.87,660h-.14l-2.59-.36V576.92l93.15,46.25a227.63,227.63,0,0,0,12.07,62.17A231.79,231.79,0,0,0,250.94,811.92c2.26,1.27,4.54,2.5,6.84,3.71,1.77.92,3.56,1.82,5.35,2.69,4,2,8.14,3.85,12.28,5.59h0l2.07.86a236.1,236.1,0,0,0,150.27,10,240.33,240.33,0,0,0,27.47-9q6.42-2.54,12.67-5.46a235.93,235.93,0,0,0,41.58-24.82,231.21,231.21,0,0,0,74.52-95c.48-1.1.94-2.2,1.37-3.32.08-.18.15-.37.22-.56.42-1,.81-2,1.19-3a0,0,0,0,1,0,0h0a0,0,0,0,1,0,0c0-.11.08-.21.12-.31l.37-1,.32-.83c.26-.69.52-1.37.75-2,.05-.11.08-.23.12-.33.33-.88.64-1.78,1-2.69l.46-1.32q1-3,2-6l.31-1c.22-.74.45-1.47.65-2.2.32-1,.6-2,.9-3l.16-.6c.15-.55.31-1.13.46-1.71,0,0,0,0,0,0s0-.19.05-.27c.09-.34.2-.68.29-1s.18-.66.25-1c.22-.83.43-1.65.61-2.42a2.88,2.88,0,0,0,.09-.4s0,0,0-.08l.09-.32c.05-.17.09-.32.12-.46l0-.14c.61-2.56,1.13-4.9,1.61-7.19l.18-.94c.07-.37.16-.73.22-1.1l0-.19c.14-.75.29-1.49.42-2.23a3.23,3.23,0,0,1,.06-.33l.16-.88c0-.1,0-.21.06-.31l.14-.8c.11-.72.23-1.43.35-2.16l.15-.83c.21-1.32.42-2.63.58-3.9.24-1.59.45-3.18.65-4.86.17-1.45.33-2.9.48-4.37q.15-1.47.27-2.94c.06-.57.12-1.13.15-1.7l89.43-44.39ZM427.09,793.19c-1.42.46-2.86.91-4.31,1.31a2.67,2.67,0,0,1-.53.16c-1.31.39-2.62.76-3.94,1.1l-.31.08q-5,1.36-10.08,2.41c-1.13.24-2.26.47-3.39.68l-.24.05c-1.47.28-3,.55-4.45.78s-3.06.51-4.59.72-3.06.43-4.59.61-3,.34-4.57.49c-1.3.12-2.61.24-3.92.32-.49.05-1,.08-1.5.11q-1.83.13-3.66.21h-.42c-1.47.09-2.94.14-4.41.16s-3.08.06-4.61.06c-1.81,0-3.63,0-5.44-.08-1.34,0-2.66-.08-4-.15a2.17,2.17,0,0,1-.36,0c-1.08,0-2.17-.1-3.25-.19-.89,0-1.77-.12-2.66-.19-.49,0-1-.08-1.46-.14-.85-.06-1.68-.13-2.53-.22l-2.05-.22c-.88-.09-1.75-.2-2.62-.32-2.79-.34-5.59-.76-8.37-1.22l-2.14-.38c-.77-.14-1.54-.28-2.32-.45-.53-.09-1.07-.19-1.6-.31-.95-.18-1.92-.39-2.89-.61-.59-.12-1.18-.25-1.78-.4-1-.21-2-.43-2.91-.69a11.46,11.46,0,0,1-1.19-.28c-1.12-.27-2.22-.56-3.32-.86-3.18-.85-6.33-1.78-9.48-2.8-1.12-.35-2.23-.72-3.35-1.11l-.58-.19v42a235.57,235.57,0,0,0,124.51,1.13V793C427.56,793.06,427.32,793.13,427.09,793.19ZM555.26,661.42c-.06.18-.12.35-.17.53-.22.79-.44,1.58-.68,2.35l-.07.28c-.17.55-.33,1.12-.51,1.68l-.21.72q-.75,2.31-1.53,4.67c-.07.17-.13.35-.18.5s-.09.27-.12.36c-.32,1-.68,2-1,2.88l0,0-.07.19c-.28.84-.6,1.67-.92,2.5l-.29.76c-.34.89-.69,1.77-1.05,2.66l-.08.17c-.38,1-.8,2-1.24,3.06a191.2,191.2,0,0,1-61.63,78.54c-.69.52-1.41,1.05-2.12,1.56-.43.32-.86.64-1.31.93-.58.44-1.17.85-1.77,1.25-3.74,2.63-7.6,5.12-11.52,7.45-.27.18-.55.34-.83.51v45.29a235.93,235.93,0,0,0,41.58-24.82,231.21,231.21,0,0,0,74.52-95c.48-1.1.94-2.2,1.37-3.32.08-.18.15-.37.22-.56.42-1,.81-2,1.19-3a0,0,0,0,1,0,0h0a0,0,0,0,1,0,0c0-.11.08-.21.12-.31l.37-1,.32-.83c.26-.69.52-1.37.75-2,.05-.11.08-.23.12-.33.33-.88.64-1.78,1-2.69l.46-1.32q1-3,2-6l.31-1c.22-.74.45-1.47.65-2.2.32-1,.6-2,.9-3l.16-.6Z"/><path class="cls-2" d="M595.93,664.44c0,.14-.07.29-.12.46s-.06.26-.1.4a2.88,2.88,0,0,1-.09.4c-.18.77-.39,1.59-.61,2.42-.07.31-.16.64-.25,1s-.23.85-.34,1.29c0,0,0,0,0,0-.15.58-.31,1.16-.46,1.71l-38.68-10.7c0-.09,0-.18.06-.26a3.92,3.92,0,0,0,.13-.49c.07-.23.13-.47.19-.69.21-.76.42-1.57.63-2.37,0-.13.06-.27.1-.4s.08-.34.12-.52l.09-.33a3.3,3.3,0,0,1,.13-.52c0-.19.09-.38.14-.58s0-.13,0-.19Z"/><path class="cls-2" d="M214.28,125.65V287.07l48.85-20.23V818.76l12.28,5.15h0l2.07.86a236.1,236.1,0,0,0,150.27,10,240.33,240.33,0,0,0,27.47-9l12.67-5V365.55L517.56,345V0Zm213.5,213.08V793c-.22.08-.46.15-.69.21-1.42.46-2.86.91-4.31,1.31a2.67,2.67,0,0,1-.53.16c-1.31.39-2.62.76-3.94,1.1l-.31.08q-5,1.36-10.08,2.41c-1.13.24-2.26.47-3.39.68l-.24.05c-1.47.28-3,.55-4.45.78s-3.06.51-4.59.72-3.06.43-4.59.61-3,.34-4.57.49c-1.3.12-2.61.24-3.92.32-.49.05-1,.08-1.5.11q-1.83.13-3.66.21h-.42c-1.47.09-2.94.14-4.41.16s-3.08.06-4.61.06c-1.81,0-3.63,0-5.44-.08-1.34,0-2.66-.08-4-.15a2.17,2.17,0,0,1-.36,0c-1.08,0-2.17-.1-3.25-.19-.89,0-1.77-.12-2.66-.19-.49,0-1-.08-1.46-.14-.85-.06-1.68-.13-2.53-.22l-2.05-.22c-.88-.09-1.75-.2-2.62-.32-2.79-.34-5.59-.76-8.37-1.22l-2.14-.38c-.77-.14-1.54-.28-2.32-.45-.53-.09-1.07-.19-1.6-.31-.95-.18-1.92-.39-2.89-.61-.59-.12-1.18-.25-1.78-.4-1-.21-2-.43-2.91-.69a11.46,11.46,0,0,1-1.19-.28c-1.12-.27-2.22-.56-3.32-.86-3.18-.85-6.33-1.78-9.48-2.8-1.12-.35-2.23-.72-3.35-1.11l-.58-.19V206.78L254.42,227V152.47l223-92.38V318.17Z"/></svg>